<svg version="1.1" id="svg-services-branding" xmlns="http://www.w3.org/2000/svg" xmlns:xlink="http://www.w3.org/1999/xlink" x="0px" y="0px" width="150px" height="150px" viewBox="0 0 150 150" enable-background="new 0 0 150 150" xml:space="preserve">
<path fill="#B2DAE3" d="M104.9,66.4c-2.4,10.1-9.8,18.2-19.5,21.5c0.5,2.2,0.8,4.6,0.8,7c0,9.2-4.1,17.4-10.6,22.9
	c5.2,4.5,12,7.2,19.5,7.2c16.6,0,30.1-13.5,30.1-30.1C125.2,81.7,116.7,70.5,104.9,66.4z"></path>
<path fill="#B2DAE3" d="M75.6,71.9c-4.8,4.1-8.3,9.6-9.8,16c3.1,1.1,6.4,1.6,9.8,1.6c3.4,0,6.7-0.6,9.8-1.6
	C83.9,81.6,80.4,76,75.6,71.9z"></path>
<circle fill="none" stroke="#0085A1" stroke-width="4" stroke-linecap="round" stroke-linejoin="round" stroke-miterlimit="10" cx="56.1" cy="94.9" r="30.1"></circle>
<circle fill="none" stroke="#0085A1" stroke-width="4" stroke-linecap="round" stroke-linejoin="round" stroke-miterlimit="10" cx="95.1" cy="94.9" r="30.1"></circle>
<circle fill="none" stroke="#0085A1" stroke-width="4" stroke-linecap="round" stroke-linejoin="round" stroke-miterlimit="10" cx="75.6" cy="59.5" r="30.1"></circle>
<line fill="none" stroke="#0085A1" stroke-width="4" stroke-linecap="round" stroke-linejoin="round" stroke-miterlimit="10" x1="26" y1="94.9" x2="48.4" y2="72.4"></line>
<line fill="none" stroke="#0085A1" stroke-width="4" stroke-linecap="round" stroke-linejoin="round" stroke-miterlimit="10" x1="27.7" y1="105" x2="53.1" y2="79.6"></line>
<line fill="none" stroke="#0085A1" stroke-width="4" stroke-linecap="round" stroke-linejoin="round" stroke-miterlimit="10" x1="31.8" y1="112.7" x2="59.6" y2="84.9"></line>
<line fill="none" stroke="#0085A1" stroke-width="4" stroke-linecap="round" stroke-linejoin="round" stroke-miterlimit="10" x1="37.7" y1="118.7" x2="65.2" y2="91.2"></line>
<line fill="none" stroke="#0085A1" stroke-width="4" stroke-linecap="round" stroke-linejoin="round" stroke-miterlimit="10" x1="45.3" y1="122.9" x2="65.9" y2="102.3"></line>
<line fill="none" stroke="#0085A1" stroke-width="4" stroke-linecap="round" stroke-linejoin="round" stroke-miterlimit="10" x1="55" y1="125" x2="69.4" y2="110.6"></line>
</svg>